<svg width="43" height="43" viewBox="0 0 43 43" fill="none" xmlns="http://www.w3.org/2000/svg">
<path d="M12.7372 18.6619C12.5055 18.4283 12.2095 18.2689 11.8869 18.2042C11.5643 18.1395 11.2298 18.1723 10.9259 18.2985C10.622 18.4247 10.3626 18.6385 10.1807 18.9126C9.99886 19.1868 9.90275 19.509 9.90467 19.838C9.90177 20.0844 9.95389 20.3284 10.0572 20.5521C10.1606 20.7758 10.3125 20.9737 10.5021 21.1312C10.6916 21.2888 10.9138 21.402 11.1527 21.4628C11.3915 21.5235 11.6409 21.5302 11.8826 21.4824C12.1244 21.4346 12.3524 21.3334 12.5501 21.1862C12.7478 21.0391 12.9102 20.8497 13.0254 20.6318C13.1406 20.414 13.2057 20.1731 13.216 19.9269C13.2264 19.6807 13.1816 19.4353 13.0851 19.2085C13.0063 19.0052 12.888 18.8194 12.7372 18.6619V18.6619ZM17.0109 14.3882C17.1657 14.5417 17.3493 14.6632 17.5511 14.7456C17.7529 14.828 17.969 14.8698 18.187 14.8685C18.405 14.8698 18.6212 14.828 18.823 14.7456C19.0248 14.6632 19.2084 14.5417 19.3631 14.3882C19.5095 14.2272 19.6271 14.0423 19.711 13.8415C19.7959 13.6424 19.8409 13.4285 19.8435 13.2121C19.8374 12.7735 19.6658 12.3534 19.3631 12.036L19.1147 11.8372L18.8165 11.6881C18.72 11.6261 18.6135 11.5813 18.5018 11.5556C18.2357 11.5023 17.9605 11.5152 17.7006 11.5932C17.4406 11.6712 17.2038 11.8119 17.0109 12.0028C16.8601 12.1604 16.7419 12.3461 16.6631 12.5495C16.5755 12.7478 16.5302 12.9622 16.5302 13.1789C16.5302 13.3957 16.5755 13.6101 16.6631 13.8084C16.7435 14.0209 16.8614 14.2172 17.0109 14.3882V14.3882ZM12.4888 11.8372C12.3964 11.7745 12.2962 11.7244 12.1906 11.6881L11.8924 11.5556C11.6238 11.4994 11.3454 11.5109 11.0823 11.589C10.8192 11.667 10.5796 11.8093 10.385 12.0028C10.2342 12.1604 10.116 12.3461 10.0372 12.5495C9.94955 12.7478 9.90428 12.9622 9.90428 13.1789C9.90428 13.3957 9.94955 13.6101 10.0372 13.8084C10.1211 14.0091 10.2387 14.194 10.385 14.355C10.5461 14.5014 10.7309 14.619 10.9317 14.7029C11.1255 14.8071 11.3412 14.8639 11.5611 14.8685C11.7791 14.8698 11.9953 14.828 12.1971 14.7456C12.3989 14.6632 12.5825 14.5417 12.7372 14.3882C12.8836 14.2272 13.0012 14.0423 13.0851 13.8415C13.17 13.6424 13.215 13.4285 13.2176 13.2121C13.2115 12.7735 13.0399 12.3534 12.7372 12.036L12.4888 11.8372ZM22.6761 31.9137C22.5221 31.7584 22.3389 31.6352 22.137 31.5511C21.9352 31.467 21.7187 31.4237 21.5 31.4237C21.2813 31.4237 21.0648 31.467 20.863 31.5511C20.6611 31.6352 20.4779 31.7584 20.3239 31.9137L17.0109 35.2266C16.8565 35.3811 16.734 35.5644 16.6504 35.7662C16.5668 35.968 16.5238 36.1843 16.5238 36.4027C16.5238 36.6212 16.5668 36.8374 16.6504 37.0392C16.734 37.241 16.8565 37.4244 17.0109 37.5788C17.3229 37.8907 17.7459 38.066 18.187 38.066C18.4055 38.066 18.6218 38.023 18.8235 37.9394C19.0253 37.8558 19.2087 37.7333 19.3631 37.5788L21.5 35.4254L23.6369 37.5788C23.7908 37.7341 23.9741 37.8573 24.1759 37.9414C24.3778 38.0255 24.5943 38.0688 24.8129 38.0688C25.0316 38.0688 25.2481 38.0255 25.45 37.9414C25.6518 37.8573 25.8351 37.7341 25.989 37.5788C26.1443 37.4248 26.2675 37.2416 26.3516 37.0398C26.4357 36.8379 26.479 36.6214 26.479 36.4027C26.479 36.1841 26.4357 35.9675 26.3516 35.7657C26.2675 35.5638 26.1443 35.3806 25.989 35.2266L22.6761 31.9137ZM32.6149 18.6619C32.461 18.5066 32.2778 18.3834 32.0759 18.2993C31.874 18.2152 31.6575 18.1719 31.4389 18.1719C31.2202 18.1719 31.0037 18.2152 30.8018 18.2993C30.6 18.3834 30.4167 18.5066 30.2628 18.6619C30.112 18.8194 29.9937 19.0052 29.9149 19.2085C29.7944 19.5095 29.7649 19.8393 29.8301 20.1569C29.8952 20.4746 30.0522 20.7661 30.2814 20.9954C30.5107 21.2247 30.8022 21.3816 31.1199 21.4468C31.4375 21.5119 31.7673 21.4824 32.0683 21.3619C32.2691 21.278 32.4539 21.1604 32.6149 21.0141C32.7685 20.8593 32.8899 20.6757 32.9724 20.4739C33.0548 20.2721 33.0966 20.056 33.0953 19.838C33.1009 19.6207 33.0555 19.4051 32.9628 19.2085C32.884 19.0052 32.7658 18.8194 32.6149 18.6619V18.6619ZM24.8129 18.1815H18.187C17.7477 18.1815 17.3264 18.356 17.0157 18.6667C16.7051 18.9773 16.5306 19.3986 16.5306 19.838C16.5306 20.2773 16.7051 20.6986 17.0157 21.0093C17.3264 21.3199 17.7477 21.4944 18.187 21.4944H24.8129C25.2523 21.4944 25.6736 21.3199 25.9843 21.0093C26.2949 20.6986 26.4694 20.2773 26.4694 19.838C26.4694 19.3986 26.2949 18.9773 25.9843 18.6667C25.6736 18.356 25.2523 18.1815 24.8129 18.1815ZM34.7518 4.92969H8.24819C6.93022 4.92969 5.66622 5.45325 4.73427 6.3852C3.80233 7.31715 3.27876 8.58114 3.27876 9.89912V23.1509C3.27876 24.4689 3.80233 25.7329 4.73427 26.6648C5.66622 27.5968 6.93022 28.1204 8.24819 28.1204H34.7518C36.0698 28.1204 37.3338 27.5968 38.2657 26.6648C39.1977 25.7329 39.7212 24.4689 39.7212 23.1509V9.89912C39.7212 8.58114 39.1977 7.31715 38.2657 6.3852C37.3338 5.45325 36.0698 4.92969 34.7518 4.92969ZM36.4083 23.1509C36.4083 23.5902 36.2338 24.0116 35.9231 24.3222C35.6125 24.6329 35.1911 24.8074 34.7518 24.8074H8.24819C7.80887 24.8074 7.38753 24.6329 7.07689 24.3222C6.76624 24.0116 6.59171 23.5902 6.59171 23.1509V9.89912C6.59171 9.45979 6.76624 9.03846 7.07689 8.72781C7.38753 8.41716 7.80887 8.24264 8.24819 8.24264H34.7518C35.1911 8.24264 35.6125 8.41716 35.9231 8.72781C36.2338 9.03846 36.4083 9.45979 36.4083 9.89912V23.1509ZM30.8094 11.6881C30.6046 11.764 30.4182 11.8826 30.2628 12.036C29.9601 12.3534 29.7885 12.7735 29.7824 13.2121C29.785 13.4285 29.83 13.6424 29.9149 13.8415C29.9988 14.0423 30.1164 14.2272 30.2628 14.3882C30.4175 14.5417 30.6011 14.6632 30.8029 14.7456C31.0047 14.828 31.2208 14.8698 31.4389 14.8685C31.6569 14.8698 31.873 14.828 32.0748 14.7456C32.2766 14.6632 32.4602 14.5417 32.6149 14.3882C32.7613 14.2272 32.8789 14.0423 32.9628 13.8415C33.0477 13.6424 33.0927 13.4285 33.0953 13.2121C33.0892 12.7735 32.9176 12.3534 32.6149 12.036C32.382 11.8061 32.0862 11.6504 31.7649 11.5885C31.4435 11.5266 31.1111 11.5613 30.8094 11.6881ZM25.7406 11.8372L25.4424 11.6881L25.1442 11.5556C24.8212 11.4925 24.4868 11.5271 24.1835 11.655C23.9787 11.7309 23.7923 11.8494 23.6369 12.0028C23.486 12.1604 23.3678 12.3461 23.289 12.5495C23.2014 12.7478 23.1561 12.9622 23.1561 13.1789C23.1561 13.3957 23.2014 13.6101 23.289 13.8084C23.3729 14.0091 23.4905 14.194 23.6369 14.355C23.7889 14.5146 23.9712 14.6421 24.1732 14.7303C24.3751 14.8185 24.5926 14.8655 24.8129 14.8685C25.031 14.8698 25.2471 14.828 25.4489 14.7456C25.6507 14.6632 25.8343 14.5417 25.989 14.3882C26.1354 14.2272 26.253 14.0423 26.3369 13.8415C26.4218 13.6424 26.4668 13.4285 26.4694 13.2121C26.4633 12.7735 26.2917 12.3534 25.989 12.036L25.7406 11.8372Z" fill="black"/>
</svg>
