<svg width="43" height="43" viewBox="0 0 43 43" fill="none" xmlns="http://www.w3.org/2000/svg">
<path d="M20.7241 33.8373H11.4672C11.058 33.8373 10.6656 33.6747 10.3762 33.3854C10.0869 33.096 9.92433 32.7036 9.92433 32.2944V10.6949C9.92433 10.2857 10.0869 9.89328 10.3762 9.60394C10.6656 9.3146 11.058 9.15206 11.4672 9.15206H19.1813V13.7805C19.1813 15.0081 19.6689 16.1854 20.5369 17.0534C21.4049 17.9214 22.5822 18.409 23.8098 18.409H28.4382V26.1231C28.4382 26.5323 28.6008 26.9247 28.8901 27.2141C29.1795 27.5034 29.5719 27.666 29.9811 27.666C30.3902 27.666 30.7827 27.5034 31.072 27.2141C31.3613 26.9247 31.5239 26.5323 31.5239 26.1231V16.8662C31.5239 16.8662 31.5239 16.8662 31.5239 16.7736C31.5078 16.6319 31.4768 16.4923 31.4313 16.3571V16.2182C31.3571 16.0596 31.2582 15.9137 31.1382 15.7862V15.7862L21.8812 6.52925C21.7537 6.40925 21.6079 6.3103 21.4492 6.23612C21.3982 6.22718 21.346 6.22718 21.295 6.23612C21.1449 6.15589 20.9837 6.09869 20.8167 6.06641H11.4672C10.2396 6.06641 9.06234 6.55405 8.19433 7.42206C7.32633 8.29006 6.83868 9.46733 6.83868 10.6949V32.2944C6.83868 33.522 7.32633 34.6993 8.19433 35.5673C9.06234 36.4353 10.2396 36.9229 11.4672 36.9229H20.7241C21.1333 36.9229 21.5257 36.7604 21.8151 36.471C22.1044 36.1817 22.2669 35.7893 22.2669 35.3801C22.2669 34.9709 22.1044 34.5785 21.8151 34.2891C21.5257 33.9998 21.1333 33.8373 20.7241 33.8373ZM22.2669 11.3274L26.2629 15.3234H23.8098C23.4006 15.3234 23.0082 15.1608 22.7188 14.8715C22.4295 14.5821 22.2669 14.1897 22.2669 13.7805V11.3274ZM14.5528 24.5803H23.8098C24.2189 24.5803 24.6114 24.4178 24.9007 24.1284C25.19 23.8391 25.3526 23.4467 25.3526 23.0375C25.3526 22.6283 25.19 22.2359 24.9007 21.9465C24.6114 21.6572 24.2189 21.4947 23.8098 21.4947H14.5528C14.1436 21.4947 13.7512 21.6572 13.4619 21.9465C13.1725 22.2359 13.01 22.6283 13.01 23.0375C13.01 23.4467 13.1725 23.8391 13.4619 24.1284C13.7512 24.4178 14.1436 24.5803 14.5528 24.5803ZM20.7241 27.666H14.5528C14.1436 27.666 13.7512 27.8285 13.4619 28.1178C13.1725 28.4072 13.01 28.7996 13.01 29.2088C13.01 29.618 13.1725 30.0104 13.4619 30.2997C13.7512 30.5891 14.1436 30.7516 14.5528 30.7516H20.7241C21.1333 30.7516 21.5257 30.5891 21.8151 30.2997C22.1044 30.0104 22.2669 29.618 22.2669 29.2088C22.2669 28.7996 22.1044 28.4072 21.8151 28.1178C21.5257 27.8285 21.1333 27.666 20.7241 27.666ZM14.5528 18.409H16.0956C16.5048 18.409 16.8972 18.2465 17.1866 17.9571C17.4759 17.6678 17.6385 17.2754 17.6385 16.8662C17.6385 16.457 17.4759 16.0646 17.1866 15.7752C16.8972 15.4859 16.5048 15.3234 16.0956 15.3234H14.5528C14.1436 15.3234 13.7512 15.4859 13.4619 15.7752C13.1725 16.0646 13.01 16.457 13.01 16.8662C13.01 17.2754 13.1725 17.6678 13.4619 17.9571C13.7512 18.2465 14.1436 18.409 14.5528 18.409ZM35.7049 28.1134C35.5615 27.9688 35.3909 27.854 35.2029 27.7757C35.0149 27.6973 34.8132 27.657 34.6095 27.657C34.4059 27.657 34.2042 27.6973 34.0162 27.7757C33.8282 27.854 33.6576 27.9688 33.5141 28.1134L28.4382 33.2047L26.448 31.199C26.3041 31.0552 26.1334 30.9411 25.9454 30.8632C25.7575 30.7854 25.556 30.7453 25.3526 30.7453C25.1492 30.7453 24.9477 30.7854 24.7598 30.8632C24.5718 30.9411 24.401 31.0552 24.2572 31.199C24.1133 31.3429 23.9992 31.5137 23.9214 31.7016C23.8435 31.8896 23.8034 32.091 23.8034 32.2944C23.8034 32.4979 23.8435 32.6993 23.9214 32.8873C23.9992 33.0752 24.1133 33.246 24.2572 33.3898L27.3428 36.4755C27.4863 36.6201 27.6569 36.7349 27.8449 36.8132C28.0329 36.8915 28.2346 36.9319 28.4382 36.9319C28.6419 36.9319 28.8436 36.8915 29.0316 36.8132C29.2196 36.7349 29.3902 36.6201 29.5336 36.4755L35.7049 30.3042C35.8495 30.1608 35.9643 29.9901 36.0427 29.8021C36.121 29.6141 36.1613 29.4125 36.1613 29.2088C36.1613 29.0051 36.121 28.8035 36.0427 28.6155C35.9643 28.4274 35.8495 28.2568 35.7049 28.1134V28.1134Z" fill="black"/>
</svg>
