<svg width="43" height="43" viewBox="0 0 43 43" fill="none" xmlns="http://www.w3.org/2000/svg">
<path d="M37.2976 26.2377H34.138V21.4984C34.138 21.0794 33.9716 20.6776 33.6754 20.3814C33.3791 20.0851 32.9773 19.9187 32.5583 19.9187H23.0798V16.7591H26.2393C26.6582 16.7591 27.0601 16.5927 27.3563 16.2964C27.6526 16.0002 27.819 15.5984 27.819 15.1794V5.70085C27.819 5.28187 27.6526 4.88006 27.3563 4.58379C27.0601 4.28753 26.6582 4.12109 26.2393 4.12109H16.7607C16.3418 4.12109 15.9399 4.28753 15.6437 4.58379C15.3474 4.88006 15.181 5.28187 15.181 5.70085V15.1794C15.181 15.5984 15.3474 16.0002 15.6437 16.2964C15.9399 16.5927 16.3418 16.7591 16.7607 16.7591H19.9202V19.9187H10.4417C10.0227 19.9187 9.62091 20.0851 9.32465 20.3814C9.02839 20.6776 8.86195 21.0794 8.86195 21.4984V26.2377H5.70244C5.28346 26.2377 4.88164 26.4041 4.58538 26.7004C4.28912 26.9966 4.12268 27.3985 4.12268 27.8174V37.296C4.12268 37.715 4.28912 38.1168 4.58538 38.413C4.88164 38.7093 5.28346 38.8757 5.70244 38.8757H15.181C15.6 38.8757 16.0018 38.7093 16.298 38.413C16.5943 38.1168 16.7607 37.715 16.7607 37.296V27.8174C16.7607 27.3985 16.5943 26.9966 16.298 26.7004C16.0018 26.4041 15.6 26.2377 15.181 26.2377H12.0215V23.0782H30.9785V26.2377H27.819C27.4 26.2377 26.9982 26.4041 26.702 26.7004C26.4057 26.9966 26.2393 27.3985 26.2393 27.8174V37.296C26.2393 37.715 26.4057 38.1168 26.702 38.413C26.9982 38.7093 27.4 38.8757 27.819 38.8757H37.2976C37.7165 38.8757 38.1184 38.7093 38.4146 38.413C38.7109 38.1168 38.8773 37.715 38.8773 37.296V27.8174C38.8773 27.3985 38.7109 26.9966 38.4146 26.7004C38.1184 26.4041 37.7165 26.2377 37.2976 26.2377ZM13.6012 29.3972V35.7162H7.28219V29.3972H13.6012ZM18.3405 13.5996V7.28061H24.6595V13.5996H18.3405ZM35.7178 35.7162H29.3988V29.3972H35.7178V35.7162Z" fill="black"/>
</svg>
