<svg width="43" height="43" viewBox="0 0 43 43" fill="none" xmlns="http://www.w3.org/2000/svg">
<path fill-rule="evenodd" clip-rule="evenodd" d="M22.4012 19.3142C23.169 18.512 23.6015 17.4598 23.6141 16.3636C23.6141 15.1804 23.1311 14.0457 22.2713 13.209C21.4115 12.3724 20.2454 11.9023 19.0294 11.9023C17.8135 11.9023 16.6474 12.3724 15.7876 13.209C14.9278 14.0457 14.4447 15.1804 14.4447 16.3636C14.4574 17.4598 14.8899 18.512 15.6576 19.3142C14.5887 19.8322 13.6688 20.6006 12.9807 21.5504C12.2926 22.5001 11.8579 23.6014 11.7158 24.7551C11.6804 25.0681 11.7742 25.382 11.9767 25.6277C12.1791 25.8734 12.4735 26.0308 12.7952 26.0652C13.1169 26.0996 13.4395 26.0083 13.6919 25.8113C13.9444 25.6143 14.1061 25.3278 14.1415 25.0148C14.2863 23.8713 14.8557 22.8188 15.7426 22.0555C16.6295 21.2923 17.7727 20.8709 18.9567 20.8709C20.1406 20.8709 21.2838 21.2923 22.1707 22.0555C23.0576 22.8188 23.6271 23.8713 23.7718 25.0148C23.8055 25.3174 23.9581 25.5957 24.1977 25.7914C24.4373 25.9871 24.7453 26.0852 25.0574 26.0652H25.1909C25.5088 26.0296 25.7994 25.8732 25.9993 25.63C26.1992 25.3868 26.2923 25.0766 26.2582 24.7669C26.1265 23.6192 25.7056 22.521 25.0327 21.5697C24.3598 20.6185 23.4559 19.8437 22.4012 19.3142ZM17.7936 18.1104C18.1486 18.3412 18.566 18.4645 18.993 18.4645C19.5656 18.4645 20.1148 18.2431 20.5196 17.8491C20.9245 17.4552 21.152 16.9208 21.152 16.3636C21.152 15.9481 21.0253 15.542 20.7881 15.1965C20.5509 14.851 20.2137 14.5817 19.8192 14.4227C19.4247 14.2637 18.9906 14.2221 18.5719 14.3032C18.1531 14.3842 17.7684 14.5843 17.4664 14.8781C17.1645 15.1719 16.9589 15.5463 16.8756 15.9538C16.7923 16.3613 16.835 16.7837 16.9985 17.1676C17.1619 17.5515 17.4386 17.8796 17.7936 18.1104Z" fill="black"/>
<circle cx="18.9868" cy="18.9852" r="12.7821" stroke="black" stroke-width="3"/>
<path d="M37.2347 39.3558C37.8205 39.9416 38.7702 39.9416 39.356 39.3558C39.9418 38.77 39.9418 37.8203 39.356 37.2345L37.2347 39.3558ZM27.1818 29.3028L37.2347 39.3558L39.356 37.2345L29.3032 27.1815L27.1818 29.3028Z" fill="black"/>
</svg>
