<svg width="81" height="68" viewBox="0 0 81 68" fill="none" xmlns="http://www.w3.org/2000/svg">
<path d="M75.8 9.60079C68.8 17.6008 65.4 24.2008 64.4 33.0008C73.6 33.6008 80.8 40.8008 80.8 50.2008C80.8 60.2008 73.4 67.6008 63.2 67.6008C51.4 67.6008 44 58.2008 44 43.2008C44 28.0008 52.2 12.2008 66 0.800781L75.8 9.60079ZM0 43.2008C0 28.0008 8.2 12.2008 22 0.800781L31.8 9.60079C24.6 17.6008 21.4 24.2008 20.4 33.0008C29.6 33.6008 36.6 40.8008 36.6 50.2008C36.6 60.2008 29.4 67.6008 19.2 67.6008C7.2 67.6008 0 58.2008 0 43.2008Z" fill="#092C2F"/>
</svg>
